<svg width="58" height="58" viewBox="0 0 58 58" fill="none" xmlns="http://www.w3.org/2000/svg">
<g filter="url(#filter0_d_17137_3314)">
<path d="M35.9347 9.38325C35.1579 9.07167 29.9516 7.5909 28.3204 9.92867C28.3204 9.92867 27.6985 10.4741 28.7091 11.7994C28.7091 11.7994 29.486 10.3186 30.5741 10.1625C30.7722 10.1343 31.0466 10.1218 31.3666 10.118L31.5066 8.99331L31.7866 10.118C33.2304 10.1312 35.2629 10.2578 36.0128 10.0848C36.0128 10.0848 35.4691 10.4741 33.4485 10.5524L33.526 12.5786L32.8591 10.5713C32.0129 10.5963 31.3529 10.6245 30.6729 10.8885L30.8066 13.4356L30.1516 11.1361C29.6754 11.4051 29.1641 11.8094 28.5535 12.4225C28.5535 12.4225 29.2529 14.4487 31.1954 14.371C33.1379 14.2933 37.256 11.0195 37.8778 9.14941C37.8772 9.14941 36.7116 9.69546 35.9347 9.38325Z" fill="black"/>
<path d="M30.8104 2.27202C30.0223 2.55474 25.1448 4.90556 25.4673 7.74095C25.4673 7.74095 25.3623 8.5628 26.9936 8.88376C26.9936 8.88376 26.5973 7.25825 27.3092 6.41885C27.4386 6.2659 27.6361 6.07407 27.8729 5.85905L27.2354 4.92374L28.1879 5.58008C29.2779 4.63035 30.8842 3.37471 31.3317 2.74657C31.3317 2.74657 31.1817 3.39978 29.7198 4.80087L31.1167 6.26715L29.2911 5.20709C28.6742 5.78821 28.1979 6.24772 27.8629 6.89779L29.6454 8.71701L27.6361 7.43002C27.4573 7.94845 27.3411 8.59038 27.2886 9.45548C27.2886 9.45548 29.1511 10.5086 30.5542 9.15896C31.9579 7.80991 32.8804 2.62119 32.1104 0.807618C32.111 0.806364 31.5985 1.98929 30.8104 2.27202Z" fill="black"/>
<path d="M53.8061 20.762C53.7286 18.5798 51.2417 16.2415 50.1542 14.9946C49.0667 13.7477 46.8911 13.2023 44.9486 13.2023C43.0061 13.2023 41.9961 14.8391 41.9961 14.8391C41.9961 14.8391 44.7936 14.1376 45.5705 14.3715C46.3474 14.6053 50.2324 17.2552 51.7867 20.1389C53.3405 23.0226 51.6311 25.0487 50.8542 26.5294C50.0774 28.0101 46.8136 28.4 44.0942 28.1662C41.3749 27.9324 39.8986 26.5294 39.2768 25.2825C38.6549 24.0356 38.733 21.7757 38.733 21.7757L31.7399 26.9971C32.3618 28.0879 34.848 29.0232 36.7124 29.1793C38.5774 29.3354 41.0636 30.4262 41.763 30.8938C42.4624 31.3615 41.2968 31.9846 41.2968 31.9846C38.888 30.5816 33.4493 28.9454 32.3612 28.9454C31.2737 28.9454 26.1449 22.7104 24.7468 20.6843C23.3481 18.6582 23.9699 17.0213 23.9699 15.6184C23.9699 14.2154 25.9124 10.1632 25.9124 10.1632C25.9124 10.1632 25.5237 8.21478 22.8824 10.3193C20.7412 12.025 18.6006 15.7281 17.6175 20.5558C18.6012 19.6336 19.4637 18.8143 19.4637 18.8143L17.44 21.535C17.3025 22.3668 17.1962 23.2263 17.1325 24.1134C17.0843 24.7885 17.0631 25.4192 17.0625 26.0141L18.7637 24.6588L17.0693 26.6009C17.125 28.874 17.5118 30.5641 18.0037 31.9351L19.3074 29.8801L18.5125 33.1914C18.9237 34.1054 19.3525 34.8846 19.6956 35.6469C20.3049 36.9997 21.7424 38.6704 23.0262 40.0151L25.0568 38.2962L24.0618 41.0689C24.6193 41.6224 25.0724 42.0525 25.2899 42.2713C26.0668 43.0505 24.9793 43.4404 24.9793 43.4404C21.4049 42.0381 16.9762 33.3876 16.9762 33.3876C16.9762 33.3876 13.0137 33.6992 11.1487 30.8938C9.28373 28.0885 10.605 24.581 11.615 22.5549C12.625 20.5288 11.615 21.0742 11.615 21.0742C11.615 21.0742 9.74998 21.3858 9.20623 21.6196C8.66248 21.8534 5.39875 25.7502 4.9325 26.2178C4.46625 26.6855 4.38875 27.4647 4.38875 27.4647L5.70937 26.2956C5.70937 26.2956 5.32062 27.4647 4.77687 28.4778C4.23312 29.4908 4 31.517 4 31.517L5.16562 29.8801V34.8677C4.77687 37.206 5.16562 37.9852 5.16562 37.9852L5.94249 34.5561C5.94249 34.5561 5.94249 37.206 5.94249 38.0629C5.94249 38.9199 7.96249 42.895 9.90498 46.168C11.8475 49.441 24.5124 49.8309 27.1543 49.5194C29.7649 49.2116 37.7605 44.4898 41.848 40.768L38.1105 41.3359L43.3955 39.15C44.1086 38.3018 44.7792 37.3652 45.393 36.4155L42.3836 37.673C42.4936 37.5997 44.1692 36.6111 45.913 35.5855C47.8774 32.3639 49.143 29.2564 49.143 29.2564C49.143 29.2564 52.0955 27.6196 53.2611 25.905C54.4273 24.1911 53.8836 22.9442 53.8061 20.762Z" fill="black"/>
<path d="M43.3943 17.8004C43.7806 17.8004 44.0937 17.4864 44.0937 17.0991C44.0937 16.7117 43.7806 16.3977 43.3943 16.3977C43.0081 16.3977 42.6949 16.7117 42.6949 17.0991C42.6949 17.4864 43.0081 17.8004 43.3943 17.8004Z" fill="black"/>
<path d="M48.8339 23.2559C49.2629 23.2559 49.6107 22.907 49.6107 22.4767C49.6107 22.0464 49.2629 21.6975 48.8339 21.6975C48.4048 21.6975 48.057 22.0464 48.057 22.4767C48.057 22.907 48.4048 23.2559 48.8339 23.2559Z" fill="black"/>
<path d="M43.3948 27.1525C44.4048 27.2302 48.2123 27.0748 49.2998 26.5287C50.3873 25.9833 51.7861 24.3465 51.4755 22.8658C51.1648 21.3851 50.3098 18.2675 48.3673 17.0206C46.4248 15.7737 44.9486 15.15 44.1717 15.15C43.3948 15.15 42.0736 15.0722 41.4523 15.8515C41.4523 15.8515 40.5973 16.3969 40.2092 18.7352C39.8205 21.0735 39.3542 22.8658 40.0536 24.3465C40.753 25.8279 42.3848 27.0748 43.3948 27.1525ZM43.9386 16.1637C45.1042 17.1767 45.0261 17.956 44.638 18.5797C44.2492 19.2035 43.783 19.7489 43.783 19.7489L43.2392 19.905L42.5398 19.4373L42.2292 19.905L42.3848 21.6973C42.3848 21.6973 43.1617 23.4896 44.2498 23.6457C45.3373 23.8018 46.1148 23.8018 46.1148 23.4896C46.1148 23.1774 45.8817 22.5542 46.4255 22.0866C46.9692 21.6189 48.6786 20.7619 49.223 21.229C49.7667 21.6966 50.3886 24.1904 49.8448 24.7358C49.3011 25.2812 49.3786 25.2035 48.9123 24.7358C48.4461 24.2682 47.4361 22.1637 47.4361 22.1637C47.4361 22.1637 46.5811 22.1637 46.5811 22.8652C46.5811 23.5667 47.1248 23.956 46.348 24.2682C45.5711 24.5797 43.318 24.1121 42.9292 23.7228C42.5405 23.3328 41.9967 22.5536 41.9192 21.7744C41.8417 20.9951 41.5305 20.2159 41.7636 19.7483C41.9967 19.2806 42.3073 18.423 42.6186 18.8129C42.9292 19.2022 43.2405 19.7483 43.6286 19.3583C44.0173 18.969 44.2505 18.3453 44.2505 18.3453C44.2505 18.3453 42.6186 18.0337 41.5311 17.0984C41.5298 17.099 42.773 15.1506 43.9386 16.1637ZM45.8036 22.2427L45.1042 22.9442C45.1042 22.9442 43.8611 22.7103 43.1617 21.6973C42.4623 20.6842 43.8611 20.2165 43.8611 20.2165C44.9486 20.7619 45.8036 22.2427 45.8036 22.2427Z" fill="black"/>
</g>
<defs>
<filter id="filter0_d_17137_3314" x="0" y="0.807617" width="58" height="56.7992" filterUnits="userSpaceOnUse" color-interpolation-filters="sRGB">
<feFlood flood-opacity="0" result="BackgroundImageFix"/>
<feColorMatrix in="SourceAlpha" type="matrix" values="0 0 0 0 0 0 0 0 0 0 0 0 0 0 0 0 0 0 127 0" result="hardAlpha"/>
<feOffset dy="4"/>
<feGaussianBlur stdDeviation="2"/>
<feComposite in2="hardAlpha" operator="out"/>
<feColorMatrix type="matrix" values="0 0 0 0 0 0 0 0 0 0 0 0 0 0 0 0 0 0 0.25 0"/>
<feBlend mode="normal" in2="BackgroundImageFix" result="effect1_dropShadow_17137_3314"/>
<feBlend mode="normal" in="SourceGraphic" in2="effect1_dropShadow_17137_3314" result="shape"/>
</filter>
</defs>
</svg>
